<svg width="385" height="326" viewBox="0 0 385 326" fill="none" xmlns="http://www.w3.org/2000/svg">
<path d="M337.361 168.771C324.633 165.579 297.014 164.778 288.361 187.108C277.544 215.02 315.568 247.816 279.094 277.722C242.621 307.628 241.459 240.813 205.228 250.798C168.997 260.784 207.074 295.78 182.105 305.762C157.135 315.743 82.1467 263.232 85.9919 240.512C89.837 217.792 105.732 226.969 110.89 237.537C116.047 248.105 89.9312 261.22 57.0385 237.892C24.1458 214.564 12.3232 201.774 0.999986 219.093" stroke="white" stroke-dasharray="5.5 5.5"/>
<path d="M361.263 180.66L358.596 168.661L344.633 161.107L355.648 157.897L353.848 151.57L384.968 149.446L361.263 180.66Z" fill="#FAFAFA"/>
<path d="M357.376 164.02C356.955 163.777 344.634 161.105 344.634 161.105L355.65 157.895L357.376 164.02Z" fill="#FAFAFA"/>
<g opacity="0.3">
<path opacity="0.3" d="M357.376 164.02C356.955 163.777 344.634 161.105 344.634 161.105L355.65 157.895L357.376 164.02Z" fill="black"/>
</g>
<path d="M384.968 149.446L357.375 164.022L344.633 161.107L358.596 168.661L384.968 149.446Z" fill="#FAFAFA"/>
<path opacity="0.1" d="M384.968 149.446L357.375 164.022L344.633 161.107L358.596 168.661L384.968 149.446Z" fill="black"/>
</svg>
