<svg width="27" height="27" viewBox="0 0 27 27" fill="none" xmlns="http://www.w3.org/2000/svg">
<circle cx="13.5" cy="13.5" r="13" fill="white"/>
<circle cx="13.5" cy="13.5" r="13" fill="white" fill-opacity="0.2"/>
<circle cx="13.5" cy="13.5" r="13" stroke="#C4C4C4"/>
<path d="M18.3333 7.33331H10.3333C9.80288 7.33331 9.29417 7.54403 8.9191 7.9191C8.54403 8.29417 8.33331 8.80288 8.33331 9.33331V17.3333C8.33447 17.7459 8.46323 18.1481 8.70194 18.4847C8.94065 18.8213 9.27761 19.0758 9.66665 19.2133V20C9.66665 20.1768 9.73688 20.3464 9.86191 20.4714C9.98693 20.5964 10.1565 20.6666 10.3333 20.6666C10.5101 20.6666 10.6797 20.5964 10.8047 20.4714C10.9297 20.3464 11 20.1768 11 20V19.3333H17.6666V20C17.6666 20.1768 17.7369 20.3464 17.8619 20.4714C17.9869 20.5964 18.1565 20.6666 18.3333 20.6666C18.5101 20.6666 18.6797 20.5964 18.8047 20.4714C18.9297 20.3464 19 20.1768 19 20V19.2133C19.389 19.0758 19.726 18.8213 19.9647 18.4847C20.2034 18.1481 20.3322 17.7459 20.3333 17.3333V9.33331C20.3333 8.80288 20.1226 8.29417 19.7475 7.9191C19.3725 7.54403 18.8637 7.33331 18.3333 7.33331ZM9.66665 11.3333H13.6666V14H9.66665V11.3333ZM19 17.3333C19 17.5101 18.9297 17.6797 18.8047 17.8047C18.6797 17.9297 18.5101 18 18.3333 18H10.3333C10.1565 18 9.98693 17.9297 9.86191 17.8047C9.73688 17.6797 9.66665 17.5101 9.66665 17.3333V15.3333H19V17.3333ZM19 14H15V11.3333H19V14ZM19 9.99998H9.66665V9.33331C9.66665 9.1565 9.73688 8.98693 9.86191 8.86191C9.98693 8.73688 10.1565 8.66665 10.3333 8.66665H18.3333C18.5101 8.66665 18.6797 8.73688 18.8047 8.86191C18.9297 8.98693 19 9.1565 19 9.33331V9.99998ZM16.7466 17.28C16.8268 17.3141 16.9129 17.3323 17 17.3333C17.1768 17.3333 17.3464 17.2631 17.4714 17.1381C17.5964 17.013 17.6666 16.8435 17.6666 16.6666C17.6699 16.6223 17.6699 16.5777 17.6666 16.5333C17.6593 16.4915 17.6459 16.4511 17.6266 16.4133C17.6121 16.3708 17.5919 16.3305 17.5666 16.2933C17.542 16.2584 17.5153 16.225 17.4866 16.1933L17.3866 16.1133C17.3495 16.0881 17.3091 16.0679 17.2666 16.0533C17.2255 16.0281 17.1805 16.0101 17.1333 16C17.0252 15.9774 16.9132 15.982 16.8073 16.0134C16.7014 16.0448 16.6049 16.1021 16.5266 16.18C16.498 16.2117 16.4713 16.2451 16.4466 16.28C16.4214 16.3171 16.4012 16.3575 16.3866 16.4C16.3674 16.4378 16.3539 16.4782 16.3466 16.52C16.3434 16.5644 16.3434 16.6089 16.3466 16.6533C16.3474 16.8282 16.4168 16.9958 16.54 17.12C16.5976 17.1864 16.6679 17.2408 16.7466 17.28ZM11.4133 17.28C11.4935 17.3141 11.5795 17.3323 11.6666 17.3333C11.8435 17.3333 12.013 17.2631 12.1381 17.1381C12.2631 17.013 12.3333 16.8435 12.3333 16.6666C12.3366 16.6223 12.3366 16.5777 12.3333 16.5333C12.326 16.4915 12.3125 16.4511 12.2933 16.4133C12.2787 16.3708 12.2585 16.3305 12.2333 16.2933C12.2087 16.2584 12.182 16.225 12.1533 16.1933L12.0533 16.1133L11.9333 16.0533L11.8 16C11.6919 15.9774 11.5798 15.982 11.4739 16.0134C11.368 16.0448 11.2716 16.1021 11.1933 16.18C11.1646 16.2117 11.1379 16.2451 11.1133 16.28C11.0881 16.3171 11.0679 16.3575 11.0533 16.4C11.0341 16.4378 11.0206 16.4782 11.0133 16.52C11.01 16.5644 11.01 16.6089 11.0133 16.6533C11.014 16.8282 11.0835 16.9958 11.2066 17.12C11.2643 17.1864 11.3345 17.2408 11.4133 17.28V17.28Z" fill="#C4C4C4"/>
</svg>
