<svg width="27" height="27" viewBox="0 0 27 27" fill="none" xmlns="http://www.w3.org/2000/svg">
<circle cx="13.5" cy="13.5" r="13" fill="white"/>
<circle cx="13.5" cy="13.5" r="13" fill="white" fill-opacity="0.2"/>
<circle cx="13.5" cy="13.5" r="13" stroke="#C4C4C4"/>
<path d="M16.4003 7.40632C16.4003 8.18302 15.8628 8.81264 15.2002 8.81264C14.5377 8.81264 14.0002 8.18302 14.0002 7.40632C14.0002 6.62962 14.5377 6 15.2002 6C15.8628 6 16.4003 6.62962 16.4003 7.40632ZM13.1627 11.8392C13.1402 11.8509 13.1151 11.8626 13.0926 11.8743L12.8176 12.0179C12.4354 12.2171 12.1356 12.5804 11.9806 13.0345L11.9428 13.1459C11.7788 13.6263 11.3133 13.8607 10.903 13.6674C10.4928 13.474 10.2933 12.929 10.4573 12.4486L10.495 12.3372C10.8048 11.4319 11.4046 10.7024 12.1666 10.3039L12.4416 10.1604C12.9626 9.89081 13.5027 9.75018 14.0927 9.75018C15.2077 9.75018 16.2128 10.5354 16.6403 11.7395L17.0028 12.8177L17.5579 13.1312C17.9529 13.3627 18.1129 13.9252 17.9154 14.3881C17.7179 14.851 17.2378 15.0385 16.8428 14.8071L16.1753 14.4174C15.9178 14.2651 15.7153 14.0102 15.6053 13.6996L15.3653 13.0257L14.8827 14.9448L16.1203 16.5298C16.2553 16.7027 16.3528 16.9107 16.4003 17.1392L16.9753 19.8347C17.0828 20.3386 16.8228 20.8484 16.3953 20.9714C15.9653 21.0974 15.5303 20.7927 15.4028 20.2917L14.8727 17.7076L13.1076 15.4487C12.7376 14.977 12.5776 14.3178 12.7401 13.6996L13.1627 11.8392ZM11.7183 17.6607L12.3424 15.8325C12.3961 15.9204 12.4541 16.0024 12.5176 16.0845L13.5352 17.3853L13.1727 18.4459C13.1126 18.6246 13.0226 18.7858 12.9076 18.9176L11.3658 20.7253C11.0533 21.0916 10.5468 21.0916 10.2343 20.7253C9.9219 20.3591 9.9219 19.7673 10.2343 19.401L11.7183 17.6607Z" fill="#C4C4C4"/>
</svg>
