<svg width="27" height="27" viewBox="0 0 27 27" fill="none" xmlns="http://www.w3.org/2000/svg">
<circle cx="13.5" cy="13.5" r="13" fill="white"/>
<circle cx="13.5" cy="13.5" r="13" fill="white" fill-opacity="0.2"/>
<circle cx="13.5" cy="13.5" r="13" stroke="#C4C4C4"/>
<path d="M18.6667 12.3333H18.4533L17.62 10.2533C17.4712 9.88351 17.2152 9.5666 16.885 9.34328C16.5548 9.11996 16.1653 9.00042 15.7667 9.00001H11.7667C11.3035 8.99868 10.8543 9.15814 10.4956 9.45115C10.137 9.74416 9.89109 10.1526 9.80001 10.6067L9.45334 12.3333H9.33334C8.80291 12.3333 8.2942 12.5441 7.91913 12.9191C7.54406 13.2942 7.33334 13.8029 7.33334 14.3333V16.3333C7.33334 16.5102 7.40358 16.6797 7.52861 16.8047C7.65363 16.9298 7.8232 17 8.00001 17H8.66668C8.66668 17.5304 8.87739 18.0391 9.25246 18.4142C9.62754 18.7893 10.1362 19 10.6667 19C11.1971 19 11.7058 18.7893 12.0809 18.4142C12.456 18.0391 12.6667 17.5304 12.6667 17H15.3333C15.3333 17.5304 15.5441 18.0391 15.9191 18.4142C16.2942 18.7893 16.8029 19 17.3333 19C17.8638 19 18.3725 18.7893 18.7476 18.4142C19.1226 18.0391 19.3333 17.5304 19.3333 17H20C20.1768 17 20.3464 16.9298 20.4714 16.8047C20.5964 16.6797 20.6667 16.5102 20.6667 16.3333V14.3333C20.6667 13.8029 20.456 13.2942 20.0809 12.9191C19.7058 12.5441 19.1971 12.3333 18.6667 12.3333V12.3333ZM14.6667 10.3333H15.7667C15.8991 10.3345 16.0281 10.3751 16.1373 10.4499C16.2465 10.5247 16.331 10.6303 16.38 10.7533L17.0133 12.3333H14.6667V10.3333ZM11.1067 10.8667C11.1378 10.7138 11.2216 10.5767 11.3434 10.4793C11.4653 10.3818 11.6174 10.3302 11.7733 10.3333H13.3333V12.3333H10.8133L11.1067 10.8667ZM10.6667 17.6667C10.5348 17.6667 10.4059 17.6276 10.2963 17.5543C10.1867 17.4811 10.1012 17.3769 10.0508 17.2551C10.0003 17.1333 9.9871 16.9993 10.0128 16.8699C10.0385 16.7406 10.102 16.6218 10.1953 16.5286C10.2885 16.4354 10.4073 16.3719 10.5366 16.3462C10.6659 16.3204 10.8 16.3336 10.9218 16.3841C11.0436 16.4345 11.1477 16.52 11.221 16.6296C11.2942 16.7393 11.3333 16.8682 11.3333 17C11.3333 17.1768 11.2631 17.3464 11.1381 17.4714C11.0131 17.5964 10.8435 17.6667 10.6667 17.6667ZM17.3333 17.6667C17.2015 17.6667 17.0726 17.6276 16.963 17.5543C16.8533 17.4811 16.7679 17.3769 16.7174 17.2551C16.667 17.1333 16.6538 16.9993 16.6795 16.8699C16.7052 16.7406 16.7687 16.6218 16.8619 16.5286C16.9552 16.4354 17.074 16.3719 17.2033 16.3462C17.3326 16.3204 17.4666 16.3336 17.5885 16.3841C17.7103 16.4345 17.8144 16.52 17.8877 16.6296C17.9609 16.7393 18 16.8682 18 17C18 17.1768 17.9298 17.3464 17.8047 17.4714C17.6797 17.5964 17.5102 17.6667 17.3333 17.6667ZM19.3333 15.6667H18.8133C18.6259 15.4604 18.3974 15.2957 18.1425 15.1829C17.8877 15.0701 17.612 15.0119 17.3333 15.0119C17.0546 15.0119 16.779 15.0701 16.5242 15.1829C16.2693 15.2957 16.0408 15.4604 15.8533 15.6667H12.1467C11.9592 15.4604 11.7307 15.2957 11.4759 15.1829C11.221 15.0701 10.9454 15.0119 10.6667 15.0119C10.388 15.0119 10.1124 15.0701 9.85749 15.1829C9.60262 15.2957 9.37413 15.4604 9.18668 15.6667H8.66668V14.3333C8.66668 14.1565 8.73691 13.987 8.86194 13.8619C8.98696 13.7369 9.15653 13.6667 9.33334 13.6667H18.6667C18.8435 13.6667 19.0131 13.7369 19.1381 13.8619C19.2631 13.987 19.3333 14.1565 19.3333 14.3333V15.6667Z" fill="#C4C4C4"/>
</svg>
