<svg width="27" height="27" viewBox="0 0 27 27" fill="none" xmlns="http://www.w3.org/2000/svg">
<circle cx="13.5" cy="13.5" r="13" fill="white"/>
<circle cx="13.5" cy="13.5" r="13" fill="white" fill-opacity="0.2"/>
<circle cx="13.5" cy="13.5" r="13" stroke="#C4C4C4"/>
<path d="M14.68 7.8125C14.9525 7.8125 15.245 7.97602 15.385 8.23855L17.8325 12.817C18.1375 12.7408 18.4625 12.6875 18.8 12.6875C20.5675 12.6875 22 14.1424 22 15.9375C22 17.7326 20.5675 19.1875 18.8 19.1875C17.0325 19.1875 15.6 17.7326 15.6 15.9375C15.6 14.899 16.06 14.0154 16.7775 13.4188L16.235 12.4006L14.1175 16.0441C14.0075 16.2295 13.8125 16.3438 13.6 16.3438H12.375C12.1775 17.9459 10.8325 19.1875 9.2 19.1875C7.43275 19.1875 6 17.7326 6 15.9375C6 14.1424 7.43275 12.6875 9.2 12.6875C9.4675 12.6875 9.73 12.7205 9.98 12.784L10.645 11.4357L10.0925 10.6562H9C8.6675 10.6562 8.4 10.3846 8.4 10.0469C8.4 9.70918 8.6675 9.4375 9 9.4375H10.4C10.5925 9.4375 10.7525 9.5317 10.8875 9.66855L11.5725 10.6562H15.3075L14.4425 9.03125H13.7775C13.4675 9.03125 13.1775 8.7583 13.1775 8.42188C13.1775 8.08545 13.4675 7.8125 13.7775 7.8125H14.68ZM17 15.9375C17 16.948 17.805 17.7656 18.8 17.7656C19.795 17.7656 20.6 16.948 20.6 15.9375C20.6 14.927 19.795 14.1094 18.8 14.1094C18.705 14.1094 18.6125 14.117 18.52 14.1322L19.3275 15.648C19.485 15.9426 19.3775 16.3133 19.085 16.4732C18.795 16.6332 18.43 16.524 18.2725 16.227L17.465 14.7111C17.175 15.0361 17 15.4652 17 15.9375ZM8.72 15.3434L9.3275 14.1145C9.285 14.1119 9.2425 14.1094 9.1775 14.1094C8.206 14.1094 7.3775 14.927 7.3775 15.9375C7.3775 16.948 8.206 17.7656 9.1775 17.7656C10.0575 17.7656 10.7725 17.1588 10.955 16.3438H9.33C8.8025 16.3438 8.49525 15.8029 8.72 15.3434ZM13.2575 15.125L13.26 15.1225L11.4375 12.5529L10.17 15.125H13.2575ZM12.435 11.875L13.925 13.9773L15.1475 11.875H12.435Z" fill="#C4C4C4"/>
</svg>
