<svg width="27" height="27" viewBox="0 0 27 27" fill="none" xmlns="http://www.w3.org/2000/svg">
<circle cx="13.5" cy="13.5" r="13" fill="white"/>
<circle cx="13.5" cy="13.5" r="13" fill="white" fill-opacity="0.2"/>
<circle cx="13.5" cy="13.5" r="13" stroke="#C4C4C4"/>
<path d="M8.41335 17.52C8.47877 17.6844 8.60684 17.8161 8.76937 17.8861C8.9319 17.9562 9.11559 17.9587 9.28002 17.8933C9.44446 17.8279 9.57617 17.6998 9.64618 17.5373C9.71619 17.3748 9.71877 17.1911 9.65335 17.0266L8.90669 15.1466L13.3334 14.1666V17.3333C13.3334 17.5101 13.4036 17.6797 13.5286 17.8047C13.6536 17.9297 13.8232 18 14 18C14.1768 18 14.3464 17.9297 14.4714 17.8047C14.5965 17.6797 14.6667 17.5101 14.6667 17.3333V14.1666L19.0934 15.1466L18.3467 17.0266C18.3142 17.1081 18.2981 17.1951 18.2993 17.2827C18.3005 17.3704 18.319 17.4569 18.3536 17.5374C18.3883 17.6179 18.4385 17.6908 18.5014 17.7518C18.5643 17.8129 18.6386 17.861 18.72 17.8933C18.7985 17.9243 18.8823 17.9402 18.9667 17.94C19.1002 17.9401 19.2307 17.9001 19.3412 17.8253C19.4518 17.7504 19.5373 17.644 19.5867 17.52L20.62 14.9133C20.6555 14.8232 20.6709 14.7263 20.6651 14.6296C20.6594 14.5329 20.6326 14.4386 20.5867 14.3533C20.5421 14.2683 20.4798 14.1939 20.4038 14.1352C20.3279 14.0766 20.2402 14.035 20.1467 14.0133L18 13.54V10.6666C18 10.4898 17.9298 10.3203 17.8048 10.1952C17.6797 10.0702 17.5102 9.99998 17.3334 9.99998H16V7.99998C16 7.82317 15.9298 7.6536 15.8048 7.52858C15.6797 7.40355 15.5102 7.33331 15.3334 7.33331H12.6667C12.4899 7.33331 12.3203 7.40355 12.1953 7.52858C12.0703 7.6536 12 7.82317 12 7.99998V9.99998H10.6667C10.4899 9.99998 10.3203 10.0702 10.1953 10.1952C10.0703 10.3203 10 10.4898 10 10.6666V13.54L7.85335 14C7.75986 14.0216 7.67215 14.0632 7.59621 14.1219C7.52028 14.1806 7.4579 14.255 7.41335 14.34C7.36744 14.4253 7.34067 14.5196 7.33492 14.6163C7.32916 14.713 7.34455 14.8098 7.38002 14.9L8.41335 17.52ZM13.3334 8.66665H14.6667V9.99998H13.3334V8.66665ZM11.3334 11.3333H16.6667V13.24L14.1467 12.6666H14.08H14H13.92H13.8534L11.3334 13.24V11.3333ZM19.8067 18.8533C19.5728 18.925 19.3488 19.0258 19.14 19.1533C18.9276 19.2775 18.686 19.343 18.44 19.343C18.194 19.343 17.9524 19.2775 17.74 19.1533C17.2782 18.8928 16.7569 18.7559 16.2267 18.7559C15.6964 18.7559 15.1752 18.8928 14.7134 19.1533C14.4981 19.2761 14.2545 19.3406 14.0067 19.3406C13.7589 19.3406 13.5153 19.2761 13.3 19.1533C12.8378 18.894 12.3167 18.7579 11.7867 18.7579C11.2567 18.7579 10.7356 18.894 10.2734 19.1533C10.061 19.2775 9.81938 19.343 9.57335 19.343C9.32733 19.343 9.08573 19.2775 8.87335 19.1533C8.66458 19.0258 8.4406 18.925 8.20669 18.8533C8.11798 18.8218 8.0236 18.8094 7.92976 18.8169C7.83592 18.8245 7.74475 18.8519 7.66224 18.8972C7.57974 18.9426 7.50777 19.0049 7.45109 19.08C7.3944 19.1552 7.35427 19.2415 7.33335 19.3333C7.28358 19.5022 7.30262 19.6838 7.3863 19.8387C7.46998 19.9936 7.61151 20.1091 7.78002 20.16C7.91426 20.1964 8.04234 20.2525 8.16002 20.3266C8.56449 20.564 9.0244 20.6905 9.49335 20.6933C9.98042 20.6934 10.4588 20.5646 10.88 20.32C11.1413 20.1758 11.4349 20.1002 11.7334 20.1002C12.0318 20.1002 12.3254 20.1758 12.5867 20.32C13.0049 20.5591 13.4783 20.6849 13.96 20.6849C14.4418 20.6849 14.9152 20.5591 15.3334 20.32C15.5947 20.1758 15.8882 20.1002 16.1867 20.1002C16.4851 20.1002 16.7787 20.1758 17.04 20.32C17.4532 20.5666 17.9255 20.6968 18.4067 20.6968C18.8879 20.6968 19.3601 20.5666 19.7734 20.32C19.891 20.2459 20.0191 20.1897 20.1534 20.1533C20.2421 20.1354 20.3262 20.0995 20.4006 20.048C20.4751 19.9965 20.5382 19.9304 20.5862 19.8536C20.6343 19.7769 20.6662 19.6912 20.68 19.6017C20.6938 19.5123 20.6893 19.421 20.6667 19.3333C20.6455 19.2431 20.6057 19.1583 20.5499 19.0843C20.4941 19.0103 20.4235 18.9487 20.3426 18.9036C20.2617 18.8584 20.1722 18.8306 20.0799 18.822C19.9877 18.8133 19.8946 18.824 19.8067 18.8533Z" fill="#C4C4C4"/>
</svg>
