<svg width="27" height="27" viewBox="0 0 27 27" fill="none" xmlns="http://www.w3.org/2000/svg">
<circle cx="13.5" cy="13.5" r="13" fill="white"/>
<circle cx="13.5" cy="13.5" r="13" fill="white" fill-opacity="0.2"/>
<circle cx="13.5" cy="13.5" r="13" stroke="#C4C4C4"/>
<path d="M14.5625 7.8125C14.93 7.8125 15.2675 8.01689 15.44 8.3452L15.7925 9.00408L16.9775 8.0009C17.1225 7.87902 17.3025 7.8125 17.49 7.8125H18C18.4425 7.8125 18.8 8.17635 18.8 8.625V9.4375C18.8 9.88691 18.4425 10.25 18 10.25H16.455L17.8325 12.817C18.1375 12.7408 18.4625 12.6875 18.8 12.6875C20.5675 12.6875 22 14.1424 22 15.9375C22 17.7326 20.5675 19.1875 18.8 19.1875C17.0325 19.1875 15.6 17.7326 15.6 15.9375C15.6 14.899 16.06 14.0154 16.7775 13.4188L16.3925 12.6926C15.4025 13.434 14.8 14.6121 14.8 15.9375C14.8 16.1939 14.8275 16.4885 14.88 16.75H13.12C13.1725 16.4885 13.1775 16.1939 13.1775 15.9375C13.1775 13.693 11.41 11.875 9.1775 11.875H6.7775V11.0625C6.7775 10.6131 7.15825 10.25 7.5775 10.25H10.1375C10.5625 10.25 10.9675 10.4201 11.2675 10.7248L12.3775 11.875L14.8525 9.80059L14.4425 9.03125H12.9775C12.6675 9.03125 12.3775 8.7583 12.3775 8.42188C12.3775 8.08545 12.6675 7.8125 12.9775 7.8125H14.5625ZM17.2 15.9375C17.2 16.8338 17.9175 17.5625 18.8 17.5625C19.6825 17.5625 20.4 16.8338 20.4 15.9375C20.4 15.0412 19.6825 14.3125 18.8 14.3125C18.74 14.3125 18.68 14.315 18.6225 14.3227L19.3275 15.648C19.485 15.9426 19.3775 16.3133 19.085 16.4732C18.795 16.6332 18.43 16.524 18.2725 16.227L17.5675 14.9016C17.3375 15.1834 17.2 15.5439 17.2 15.9375ZM12.345 16.5469C12.0625 18.05 10.7625 19.1875 9.2 19.1875C7.43275 19.1875 6 17.7326 6 15.9375C6 14.1424 7.43275 12.6875 9.2 12.6875C10.7625 12.6875 12.0625 13.825 12.345 15.3281H10.6825C10.4475 14.7314 9.8725 14.3125 9.2 14.3125C8.31625 14.3125 7.6 15.0412 7.6 15.9375C7.6 16.8338 8.31625 17.5625 9.2 17.5625C9.8725 17.5625 10.4475 17.1436 10.6825 16.5469H12.345ZM8.4 15.9375C8.4 15.4881 8.7575 15.125 9.2 15.125C9.6425 15.125 10 15.4881 10 15.9375C10 16.3869 9.6425 16.75 9.2 16.75C8.7575 16.75 8.4 16.3869 8.4 15.9375Z" fill="#C4C4C4"/>
</svg>
