<svg width="169" height="62" viewBox="0 0 169 62" fill="none" xmlns="http://www.w3.org/2000/svg">
<path d="M22.4027 8.84857C22.1924 8.63858 21.8016 8.35357 21.2307 7.99357C20.6898 7.63357 20.0136 7.28858 19.2023 6.95857C18.4209 6.62857 17.5645 6.34358 16.633 6.10357C15.7014 5.83357 14.7549 5.69857 13.7932 5.69857C12.1104 5.69857 10.8332 6.01357 9.96175 6.64357C9.12034 7.27357 8.69963 8.15857 8.69963 9.29857C8.69963 10.1686 8.97009 10.8586 9.511 11.3686C10.0519 11.8786 10.8633 12.3136 11.9451 12.6736C13.0269 13.0336 14.3792 13.4235 16.0019 13.8436C18.1054 14.3536 19.9235 14.9836 21.4561 15.7336C23.0187 16.4536 24.2057 17.4136 25.0171 18.6136C25.8584 19.7836 26.2792 21.3435 26.2792 23.2936C26.2792 25.0036 25.9636 26.4735 25.3326 27.7036C24.7015 28.9035 23.83 29.8786 22.7182 30.6286C21.6064 31.3785 20.3442 31.9336 18.9318 32.2936C17.5194 32.6236 16.017 32.7886 14.4243 32.7886C12.8316 32.7886 11.2389 32.6236 9.64622 32.2936C8.05354 31.9635 6.52097 31.4986 5.0485 30.8986C3.57603 30.2686 2.22375 29.5186 0.991679 28.6486L3.7413 23.2936C4.01175 23.5636 4.49256 23.9236 5.18372 24.3736C5.87489 24.7936 6.7163 25.2286 7.70797 25.6786C8.69963 26.0986 9.78145 26.4586 10.9534 26.7586C12.1254 27.0585 13.3124 27.2086 14.5144 27.2086C16.1973 27.2086 17.4743 26.9235 18.3458 26.3536C19.2174 25.7836 19.653 24.9736 19.653 23.9236C19.653 22.9635 19.3075 22.2136 18.6163 21.6736C17.9251 21.1336 16.9636 20.6685 15.7315 20.2786C14.4993 19.8585 13.042 19.4085 11.3591 18.9286C9.34572 18.3586 7.66289 17.7286 6.31062 17.0386C4.95835 16.3186 3.95165 15.4186 3.29054 14.3386C2.62944 13.2586 2.29888 11.9086 2.29888 10.2886C2.29888 8.09858 2.80974 6.26857 3.83145 4.79857C4.88322 3.29857 6.29559 2.17357 8.06857 1.42357C9.84156 0.643568 11.8099 0.253571 13.9735 0.253571C15.4761 0.253571 16.8884 0.418568 18.2106 0.748572C19.5629 1.07858 20.825 1.51357 21.997 2.05357C23.169 2.59357 24.2208 3.17857 25.1523 3.80857L22.4027 8.84857ZM44.6376 32.6536C42.2937 32.6536 40.1602 32.2036 38.2369 31.3036C36.3437 30.4036 34.706 29.1886 33.3236 27.6586C31.9713 26.0986 30.9197 24.3585 30.1683 22.4386C29.4171 20.4885 29.0414 18.4936 29.0414 16.4536C29.0414 14.3235 29.4322 12.2985 30.2134 10.3786C31.0248 8.42857 32.1216 6.70358 33.5039 5.20357C34.9163 3.67357 36.5691 2.47358 38.4623 1.60357C40.3856 0.703572 42.4891 0.253571 44.7729 0.253571C47.0868 0.253571 49.1903 0.718576 51.0835 1.64857C53.0068 2.57857 54.6445 3.82358 55.9967 5.38357C57.349 6.94357 58.4008 8.68357 59.152 10.6036C59.9034 12.5235 60.2789 14.5035 60.2789 16.5436C60.2789 18.6435 59.8883 20.6685 59.1069 22.6186C58.3257 24.5385 57.2288 26.2636 55.8164 27.7936C54.4341 29.2936 52.7814 30.4785 50.8581 31.3486C48.9649 32.2186 46.8914 32.6536 44.6376 32.6536ZM35.352 16.4536C35.352 17.8335 35.5625 19.1686 35.9831 20.4586C36.4038 21.7485 37.0049 22.9036 37.7861 23.9236C38.5975 24.9136 39.5742 25.7085 40.716 26.3086C41.888 26.8785 43.2103 27.1636 44.6827 27.1636C46.1853 27.1636 47.5225 26.8636 48.6944 26.2636C49.8664 25.6336 50.8431 24.8085 51.6244 23.7886C52.4057 22.7385 52.9917 21.5836 53.3823 20.3236C53.8031 19.0336 54.0134 17.7435 54.0134 16.4536C54.0134 15.0736 53.788 13.7536 53.3372 12.4936C52.9166 11.2036 52.3005 10.0636 51.4891 9.07357C50.7079 8.05358 49.7312 7.25857 48.5592 6.68857C47.4174 6.08857 46.1251 5.78857 44.6827 5.78857C43.1501 5.78857 41.7979 6.10357 40.6259 6.73357C39.4841 7.33358 38.5224 8.14358 37.741 9.16357C36.9598 10.1836 36.3588 11.3236 35.938 12.5836C35.5474 13.8436 35.352 15.1335 35.352 16.4536ZM63.1124 16.2286C63.1124 14.2785 63.458 12.3736 64.1491 10.5136C64.8703 8.62357 65.9071 6.91357 67.2593 5.38357C68.6116 3.82358 70.2645 2.59357 72.2177 1.69357C74.171 0.763576 76.3948 0.298572 78.8889 0.298572C81.8339 0.298572 84.3732 0.943576 86.5067 2.23357C88.6703 3.52357 90.2781 5.20357 91.3298 7.27357L86.5518 10.5586C86.0109 9.35857 85.3047 8.41358 84.4332 7.72357C83.5618 7.00357 82.6302 6.50857 81.6385 6.23857C80.6469 5.93858 79.6702 5.78857 78.7086 5.78857C77.146 5.78857 75.7787 6.10357 74.6067 6.73357C73.4649 7.36357 72.5032 8.18858 71.7218 9.20857C70.9406 10.2286 70.3546 11.3686 69.9639 12.6286C69.6033 13.8886 69.423 15.1486 69.423 16.4086C69.423 17.8186 69.6484 19.1835 70.0991 20.5036C70.5499 21.7935 71.1809 22.9486 71.9923 23.9686C72.8338 24.9586 73.8255 25.7535 74.9673 26.3536C76.1393 26.9235 77.4165 27.2086 78.7987 27.2086C79.7904 27.2086 80.7971 27.0436 81.8188 26.7136C82.8406 26.3835 83.7872 25.8586 84.6586 25.1386C85.5301 24.4186 86.2062 23.4886 86.687 22.3486L91.7806 25.2736C91.1495 26.8636 90.1128 28.2136 88.6703 29.3236C87.258 30.4335 85.6653 31.2736 83.8923 31.8436C82.1194 32.4135 80.3615 32.6986 78.6184 32.6986C76.3346 32.6986 74.2461 32.2335 72.3529 31.3036C70.4597 30.3435 68.8221 29.0835 67.4397 27.5236C66.0874 25.9335 65.0206 24.1636 64.2393 22.2136C63.4881 20.2336 63.1124 18.2385 63.1124 16.2286ZM95.9523 32.4286V0.478572H102.173V32.4286H95.9523ZM117.549 0.478572H123.86L135.625 32.4286H129.224L126.249 24.4636H115.07L112.14 32.4286H105.74L117.549 0.478572ZM125.122 20.0986L120.705 6.91357L116.107 20.0986H125.122ZM139.135 32.4286V0.478572H145.355V26.9836H161.673V32.4286H139.135ZM27.2708 35.495H17.0386V62H10.8633V35.495H0.631073V30.05H27.2708V35.495ZM31.2438 62V30.05H45.3976C46.8702 30.05 48.2224 30.35 49.4544 30.95C50.7165 31.55 51.7984 32.36 52.6999 33.38C53.6315 34.4 54.3377 35.54 54.8184 36.8C55.3293 38.06 55.5847 39.35 55.5847 40.67C55.5847 42.02 55.3444 43.325 54.8635 44.585C54.4128 45.815 53.7517 46.895 52.8802 47.825C52.0088 48.755 50.987 49.475 49.815 49.985L57.1173 62H50.2658L43.6847 51.29H37.4643V62H31.2438ZM37.4643 45.845H45.2624C46.0437 45.845 46.7349 45.62 47.3359 45.17C47.9369 44.69 48.4177 44.06 48.7783 43.28C49.1389 42.5 49.3192 41.63 49.3192 40.67C49.3192 39.65 49.1089 38.765 48.6881 38.015C48.2675 37.235 47.7266 36.62 47.0654 36.17C46.4343 35.72 45.7433 35.495 44.9919 35.495H37.4643V45.845ZM69.9206 30.05H76.2312L87.996 62H81.5952L78.6202 54.035H67.4415L64.5115 62H58.1108L69.9206 30.05ZM77.4933 49.67L73.0759 36.485L68.4782 49.67H77.4933ZM92.1996 30.05L100.854 54.62L109.419 30.05H115.955L103.829 62H97.8341L85.6637 30.05H92.1996ZM141.593 56.555V62H119.371V30.05H141.188V35.495H125.591V43.19H139.069V48.23H125.591V56.555H141.593ZM146.442 62V30.05H152.663V56.555H168.98V62H146.442Z" fill="white"/>
</svg>
